HIERARCHY
ROOT Hips
{
  OFFSET 1.44925e-005 102.336 -0.101585
  CHANNELS 6 Xposition Yposition Zposition Zrotation Xrotation Yrotation
  JOINT LeftUpLeg
  {
    OFFSET 8.9458 -8.66707 0.101652
    CHANNELS 3 Zrotation Xrotation Yrotation
    JOINT LeftLeg
    {
      OFFSET 0 -44.4227 1.3727
      CHANNELS 3 Zrotation Xrotation Yrotation
      JOINT LeftFoot
      {
        OFFSET -0.253549 -42.0924 -1.46059
        CHANNELS 3 Zrotation Xrotation Yrotation
        JOINT LeftToes
        {
          OFFSET -0.04 -4.41509 8.4991
          CHANNELS 3 Zrotation Xrotation Yrotation
          End Site
          {
            OFFSET 0.08 -0.047448 9.77979
          }
        }
      }
    }
  }
  JOINT Spine
  {
    OFFSET 0 11.8905 0
    CHANNELS 3 Zrotation Xrotation Yrotation
    JOINT Spine1
    {
      OFFSET 0 25.6574 0.127663
      CHANNELS 3 Zrotation Xrotation Yrotation
      JOINT RightShoulder
      {
        OFFSET -8.99 -0.362252 -0.22
        CHANNELS 3 Zrotation Xrotation Yrotation
        JOINT RightArm
        {
          OFFSET -10.2827 -0.00338 0.322123
          CHANNELS 3 Zrotation Xrotation Yrotation
          JOINT RightForeArm
          {
            OFFSET -26.364 0.099144 -1.42434
            CHANNELS 3 Zrotation Xrotation Yrotation
            JOINT RightHand
            {
              OFFSET -22.0324 0.085362 1.02216
              CHANNELS 3 Zrotation Xrotation Yrotation
              End Site
              {
                OFFSET -13.3284 -0.6 1.50291
              }
            }
          }
        }
      }
      JOINT LeftShoulder1
      {
        OFFSET 8.99 -0.362252 -0.22
        CHANNELS 3 Zrotation Xrotation Yrotation
        JOINT LeftArm
        {
          OFFSET 10.2827 -0.00337999 0.322123
          CHANNELS 3 Zrotation Xrotation Yrotation
          JOINT LeftForeArm
          {
            OFFSET 26.2597 0.099144 -1.42434
            CHANNELS 3 Zrotation Xrotation Yrotation
            JOINT LeftHand
            {
              OFFSET 22.0902 0.085362 1.02216
              CHANNELS 3 Zrotation Xrotation Yrotation
              End Site
              {
                OFFSET 13.419 -0.6 1.50291
              }
            }
          }
        }
      }
      JOINT Head
      {
        OFFSET 0 8.73416 0.011341
        CHANNELS 3 Zrotation Xrotation Yrotation
        End Site
        {
          OFFSET -0.29 12.7742 2.51395
        }
      }
    }
  }
  JOINT RightUpLeg
  {
    OFFSET -8.9458 -8.66707 0.101652
    CHANNELS 3 Zrotation Xrotation Yrotation
    JOINT RightLeg
    {
      OFFSET 0 -44.4227 1.3727
      CHANNELS 3 Zrotation Xrotation Yrotation
      JOINT RightFoot
      {
        OFFSET 0.253549 -42.0924 -1.46059
        CHANNELS 3 Zrotation Xrotation Yrotation
        JOINT RightToes
        {
          OFFSET 0.04 -4.41509 8.4991
          CHANNELS 3 Zrotation Xrotation Yrotation
          End Site
          {
            OFFSET -0.08 -0.137448 9.77979
          }
        }
      }
    }
  }
}
MOTION
Frames:	7
Frame Time:	0.0333333
51.6322 98.5157 2.91079 -10.1863 -2.25103 -90.3179 -7.5496 14.8173 3.59894 0.0998101 17.5175 19.7547 -1.45566 -25.5206 -0.0955353 -1.35115e-009 8.75232e-006 -1.472e-008 -6.69625 19.2661 -3.01802 5.34358 -1.95883 -4.98301 38.6354 1.82932 0.0912221 25.7111 -23.4346 -24.7686 12.0791 46.2227 -1.77956 -10.5758 9.50346 -0.780485 -38.3126 2.98644 -3.20232 -25.4577 -16.1052 -52.0877 -0.670201 24.2059 -29.2382 5.82328 9.61819 -0.917488 1.52366 -13.8966 1.27249 -4.43933 -30.1309 -6.98974 -1.1365 34.8484 -16.4046 11.795 -12.482 0.301687 0.0462048 0.000530889 0.662642 
47.424 97.5718 2.73568 -10.57 -2.4843 -89.5459 -7.41436 17.6923 4.30818 0.38426 18.3922 18.2074 -3.43033 -27.7392 -0.472441 -1.35115e-009 8.75232e-006 -1.472e-008 -6.65966 18.9652 -3.16555 5.65248 -1.57099 -5.16805 38.6176 1.83046 0.0952903 24.323 -25.3032 -25.9215 11.9809 45.4753 -2.84197 -11.1146 9.45922 -0.518701 -37.507 2.90781 -3.15137 -26.6099 -16.1078 -54.7134 -0.333451 24.6528 -30.199 5.82328 9.61819 -0.917488 1.15334 -13.6429 0.600396 -4.16868 -27.3555 -6.97952 -0.827014 25.2659 -14.9769 12.3684 -13.3001 0.412678 0.0462048 0.000530889 0.662642 
42.9682 96.5766 2.42155 -10.8091 -2.7527 -88.3904 -7.00572 20.2058 4.65114 0.838889 20.0464 16.496 -5.9471 -29.22 -1.00396 -1.35115e-009 8.75232e-006 -1.472e-008 -7.01318 18.1642 -3.33414 6.55716 -0.885134 -5.54212 38.3638 1.82792 0.111018 24.0486 -26.2556 -25.9718 11.6733 44.7355 -2.81566 -11.2815 9.43232 -0.294898 -36.9686 2.85545 -3.11625 -26.7261 -14.9402 -55.9253 -0.0168133 25.1145 -30.0934 5.82328 9.61819 -0.917488 0.668992 -13.2685 -0.134086 -4.00555 -24.696 -5.9033 -0.291502 20.4766 -14.9396 12.7512 -14.5894 0.566911 0.0462048 0.000530889 0.662642 
38.3098 95.787 1.98742 -10.5504 -2.69185 -86.8781 -5.91102 22.0431 3.7381 1.16154 22.1371 15.5821 -8.11075 -29.307 -1.44061 -1.35115e-009 8.75232e-006 -1.472e-008 -7.06265 16.7851 -3.65376 7.7981 -0.28498 -6.04138 38.0664 1.81565 0.108667 24.65 -26.3642 -25.0395 11.4063 44.3411 -2.21784 -11.1044 9.45954 -0.518617 -36.9326 2.85187 -3.11363 -25.2753 -12.5666 -55.3583 0.241316 25.5599 -29.2484 5.82328 9.61819 -0.917488 0.121773 -12.4601 -0.895123 -3.44607 -22.5923 -5.19963 -0.00467806 19.5854 -16.7812 11.1605 -14.4394 0.461824 0.0462048 0.000530889 0.662642 
33.4877 95.2045 1.54419 -10.065 -1.54876 -85.888 -3.59393 23.0589 2.04701 1.00023 25.2701 15.6252 -11.5771 -28.4777 -2.04249 -1.35115e-009 8.75232e-006 -1.472e-008 -5.11752 15.2237 -4.0868 8.13051 -0.0537177 -6.13106 37.9217 1.79671 0.0781179 25.7583 -26.2677 -22.9942 11.3357 44.5525 -1.7888 -10.7197 9.51382 -0.97047 -37.628 2.9174 -3.15397 -22.6474 -9.31769 -52.9835 0.438587 25.9586 -28.2308 5.82328 9.61819 -0.917488 -0.518288 -11.2879 -1.58328 -1.65573 -21.8272 -5.86872 -0.138031 21.8957 -18.0987 7.29993 -11.3499 0.053813 0.0462048 0.000530889 0.662642 
28.6124 94.7041 1.13129 -9.89182 0.652416 -86.32 -0.505949 22.9821 2.29424 0.941541 30.8344 14.9563 -16.1044 -25.6919 -2.48543 -1.35115e-009 8.75232e-006 -1.472e-008 -1.31325 13.9758 -4.26988 7.25997 0.0544156 -5.51705 38.0086 1.78613 0.0468302 27.3333 -26.3346 -18.8331 11.8406 45.4585 -2.46918 -10.3512 9.53672 -1.07687 -38.8907 3.03615 -3.22221 -20.2701 -6.06764 -48.8961 0.629398 26.3501 -27.4426 5.82328 9.61819 -0.917488 -1.15789 -10.5084 -1.80839 1.33652 -22.4452 -6.92038 -0.745779 27.0006 -16.8115 2.9209 -7.54228 -0.177076 0.0462048 0.000530889 0.662642 
23.8991 94.3688 0.655885 -10.0146 2.82878 -87.7539 2.50849 20.7543 3.60581 1.09503 40.0359 14.8774 -17.0782 -18.159 -1.55567 -1.35115e-009 8.75232e-006 -1.472e-008 2.17086 13.3415 -4.10916 6.51799 0.319106 -4.70193 38.3033 1.79009 0.0310372 29.5491 -26.484 -11.9545 13.0825 46.856 -4.45369 -10.3966 9.50309 -0.687721 -40.2002 3.16354 -3.29613 -19.1289 -3.10718 -43.4207 0.446328 26.1105 -26.4163 5.82328 9.61819 -0.917488 -1.45517 -10.7062 -1.44712 4.67793 -22.6518 -6.20831 -1.04918 32.1372 -15.3726 -0.473802 -6.67532 -0.170682 0.0462048 0.000530889 0.662642 
